<svg id="Layer_1" enable-background="new 0 0 64 64" height="15" viewBox="0 0 64 64" width="15"
    xmlns="http://www.w3.org/2000/svg" fill="currentColor">
    <g>
        <path fill="rgb(46, 125, 50)"
            d="m32.016 58.003c-9.888.001-19.006-5.665-23.373-14.583-4.419-9.027-3.081-20.285 3.331-28.014 6.405-7.721 16.818-11.09 26.526-8.583 1.069.276 1.712 1.367 1.437 2.437-.276 1.07-1.368 1.712-2.437 1.437-8.212-2.121-17.026.729-22.447 7.264-5.424 6.539-6.556 16.064-2.817 23.702 3.725 7.608 11.942 12.564 20.376 12.334 8.433-.23 16.086-5.359 19.497-13.066 2.003-4.526 2.427-9.651 1.192-14.432-.276-1.069.367-2.16 1.437-2.437 1.067-.277 2.16.367 2.437 1.437 1.458 5.649.959 11.705-1.407 17.051-4.032 9.11-13.079 15.173-23.046 15.445-.236.005-.472.008-.706.008z" />
    </g>
    <g>
        <path fill="rgb(46, 125, 50)"
            d="m32 38.24c-.512 0-1.024-.195-1.414-.586-.781-.781-.781-2.047 0-2.828l24-24c.78-.781 2.048-.781 2.828 0 .781.781.781 2.047 0 2.828l-24 24c-.39.39-.902.586-1.414.586z" />
    </g>
    <g>
        <path fill="rgb(46, 125, 50)"
            d="m32 38.24c-.512 0-1.024-.195-1.414-.586l-8.485-8.485c-.781-.781-.781-2.047 0-2.828.78-.781 2.048-.781 2.828 0l8.485 8.485c.781.781.781 2.047 0 2.828-.39.39-.902.586-1.414.586z" />
    </g>
</svg>