<svg width="64" height="64" xmlns="http://www.w3.org/2000/svg" fill="currentColor" enable-background="new 0 0 64 64">

 <g>
  <title>Layer 1</title>
  <g id="svg_1">
   <path id="svg_2" d="m32.016,58.003c-9.888,0.001 -19.006,-5.665 -23.373,-14.583c-4.419,-9.027 -3.081,-20.285 3.331,-28.014c6.405,-7.721 16.818,-11.09 26.526,-8.583c1.069,0.276 1.712,1.367 1.437,2.437c-0.276,1.07 -1.368,1.712 -2.437,1.437c-8.212,-2.121 -17.026,0.729 -22.447,7.264c-5.424,6.539 -6.556,16.064 -2.817,23.702c3.725,7.608 11.942,12.564 20.376,12.334c8.433,-0.23 16.086,-5.359 19.497,-13.066c2.003,-4.526 2.427,-9.651 1.192,-14.432c-0.276,-1.069 0.367,-2.16 1.437,-2.437c1.067,-0.277 2.16,0.367 2.437,1.437c1.458,5.649 0.959,11.705 -1.407,17.051c-4.032,9.11 -13.079,15.173 -23.046,15.445c-0.236,0.005 -0.472,0.008 -0.706,0.008z" fill="rgb(46, 125, 50)"/>
  </g>
  <ellipse stroke="#282828" stroke-width="4" fill-opacity="0" ry="24.0458" rx="23.96947" id="svg_7" cy="32" cx="31.99999" fill="#a9d37e"/>
 </g>
</svg>