<svg id="Capa_1" enable-background="new 0 0 512.038 512.038" height="512" viewBox="0 0 512.038 512.038" width="512" xmlns="http://www.w3.org/2000/svg"><g><g><path d="m465.934 469.856c0 13.621-11.042 24.663-24.663 24.663h-370.504c-13.621 0-24.663-11.042-24.663-24.663v-245.87c0-6.711-7.302-13.141-2.512-17.842l110.917-108.862 27.373-17.051 10.378-20 47.198-46.324c9.398-8.517 23.724-8.517 33.122 0l47.198 46.324 10.377 20 29.359 19.001 108.931 106.913c4.79 4.701-2.512 11.131-2.512 17.842z" fill="#8ebaff"/><path d="m128.286 123.019h255.466l-63.974-62.789h-127.518z" fill="#7aa3ff"/><path d="m426.722 268.777v-163.546c0-13.807-11.193-25-25-25h-301.406c-13.807 0-25 11.193-25 25v163.546l142.461 101.245 26.364-14.488c7.397-4.065 16.359-4.065 23.756 0l26.364 14.488z" fill="#f7f9fa"/><path d="m294.261 380.021-26.364-14.488c-7.397-4.065-16.359-4.065-23.756 0l-26.364 14.488-142.461-111.245v-58.965l134.5 134.262c4.718 4.71 11.979 5.741 17.821 2.53l16.504-9.07c7.397-4.065 16.359-4.065 23.756 0l16.504 9.07c5.843 3.211 13.103 2.18 17.821-2.53l97.162-96.99c4.698-4.69 7.338-11.055 7.338-17.693v-124.16c0-13.807-11.193-25-25-25h30c13.807 0 25 11.193 25 25v163.546z" fill="#dce6eb"/><path d="m36.104 479.856c0 12.886 9.884 23.457 22.483 24.562l159.19-124.397-174.185-173.877c-4.79 4.701-7.488 11.131-7.488 17.842z" fill="#f7f9fa"/><path d="m473.934 479.856c0 12.886-7.884 23.457-20.483 24.562l-159.19-124.397 174.185-173.877c4.79 4.701 5.488 11.131 5.488 17.842z" fill="#f7f9fa"/><path d="m475.934 223.986c0-6.711-2.698-13.141-7.488-17.842l-22.512 22.472v251.24c0 5.563-1.845 10.693-4.953 14.818l12.47 9.744c12.599-1.104 22.483-11.676 22.483-24.562z" fill="#dce6eb"/><path d="m60.767 504.519h390.504c11.936-11.544 11.936-11.544 24.663-24.663l-208.037-114.323c-7.397-4.065-16.359-4.065-23.756 0l-208.037 114.323c0 13.621 11.042 24.663 24.663 24.663z" fill="#fed402"/><path d="m445.934 463.37v16.486c0 13.621-11.042 24.663-24.663 24.663h30c13.621 0 24.663-11.042 24.663-24.663z" fill="#fac600"/></g><g><path d="m287.29 167.253c.021-4.143-3.321-7.517-7.463-7.537-.013 0-.025 0-.038 0-4.125 0-7.478 3.334-7.499 7.463l-.019 3.778c-5.307-4.085-11.769-6.398-18.961-6.398-17.689 0-35.987 15.304-35.987 40.913 0 23.357 15.819 42.36 35.263 42.36 8.453 0 16.106-3.563 22.048-9.562 1.18 2.389 2.728 4.589 4.612 6.483 4.182 4.203 9.57 6.518 15.173 6.518 16.214 0 26.481-11.288 30.685-21.852 6.524-16.404 7.697-30.226 3.803-44.814-.021-.077-.043-.155-.066-.232-5.895-19.532-19.084-35.525-37.137-45.033-18.051-9.507-38.705-11.331-58.16-5.137-18.435 5.868-33.772 18.52-43.186 35.624-9.417 17.109-11.893 36.834-6.973 55.541 4.262 16.204 13.463 30.184 26.61 40.426 12.658 9.862 28.425 15.537 44.396 15.979.071.002.141.003.211.003 4.045 0 7.38-3.223 7.494-7.293.114-4.141-3.149-7.59-7.29-7.704-26.702-.738-50.105-19.336-56.914-45.225-3.937-14.97-1.945-30.771 5.607-44.494 7.553-13.723 19.838-23.866 34.595-28.563 15.597-4.965 32.153-3.503 46.62 4.115 14.428 7.599 24.98 20.366 29.725 35.96 3.18 12.009 1.262 23.901-3.272 35.304-1.483 3.727-6.083 12.396-16.747 12.396-2.134 0-3.761-1.314-4.54-2.098-1.819-1.829-2.898-4.521-2.885-7.201zm-34.704 65.579c-9.745 0-20.263-10.461-20.263-27.36 0-16.221 10.67-25.913 20.987-25.913 10.785 0 18.401 10.019 18.797 24.512l-.013 2.742c-.572 14.483-9.102 26.019-19.508 26.019z"/><path d="m483.434 479.884c0-.003 0-.006 0-.009v-255.87c0-8.632-3.52-17.049-9.657-23.115-.008-.008-.015-.018-.023-.026-.004-.004-.009-.008-.014-.013-.014-.013-.026-.028-.04-.041l-29.478-28.931v-16.916c0-4.143-3.357-7.5-7.5-7.5s-7.5 3.357-7.5 7.5v79.758l-136.279 136.037-21.434-11.777c-9.697-5.331-21.28-5.332-30.98-.001l-21.434 11.778-136.279-136.037v-129.472c0-9.649 7.851-17.5 17.5-17.5h311.406c9.649 0 17.5 7.851 17.5 17.5v17.789c0 4.143 3.357 7.5 7.5 7.5s7.5-3.357 7.5-7.5v-17.789c0-17.921-14.579-32.5-32.5-32.5h-68.501l-65.387-64.176c-.071-.07-.144-.139-.218-.205-12.312-11.157-30.882-11.158-43.195 0-.074.066-.146.135-.217.205l-65.388 64.176h-68.501c-17.92 0-32.5 14.579-32.5 32.5v66.631l-29.478 28.931c-.012.012-.024.025-.036.038-.006.006-.012.01-.018.016-.011.011-.02.023-.03.033-6.132 6.066-9.65 14.48-9.65 23.107v85.586c0 4.143 3.358 7.5 7.5 7.5s7.5-3.357 7.5-7.5v-85.586c0-2.096.404-4.161 1.13-6.104l25.283 25.238 135.384 135.144-161.796 88.913v-124.919c0-4.143-3.358-7.5-7.5-7.5s-7.5 3.357-7.5 7.5v137.598.008c0 .04.002.079.003.119.069 17.676 14.467 32.036 32.16 32.036h276.896c4.143 0 7.5-3.357 7.5-7.5s-3.357-7.5-7.5-7.5h-276.896c-8.032 0-14.773-5.553-16.635-13.017l177.257-97.408 26.364-14.488c5.176-2.844 11.355-2.845 16.531.001l26.363 14.487 177.258 97.409c-1.862 7.463-8.604 13.016-16.635 13.016h-80.92c-4.143 0-7.5 3.357-7.5 7.5s3.357 7.5 7.5 7.5h80.921c17.692 0 32.091-14.36 32.16-32.036.001-.04.003-.079.003-.118zm-238.839-460.491c6.538-5.832 16.312-5.833 22.848 0l54.364 53.356h-131.576zm-176.779 200.354-13.563-13.539 13.563-13.311zm374.205 23.392 25.283-25.239c.726 1.943 1.13 4.009 1.13 6.105v243.19l-161.798-88.912zm15.764-36.931-13.563 13.539v-26.85z"/></g></g></svg>